<svg xmlns="http://www.w3.org/2000/svg" xmlns:xlink="http://www.w3.org/1999/xlink" preserveAspectRatio="xMidYMid" width="22.154" height="18" viewBox="0 0 32 26">
  <defs>
    <style>
      .cls-1 {
        fill: #000;
        fill-rule: evenodd;
      }
    </style>
  </defs>
  <path d="M30.000,26.000 L2.000,26.000 C0.895,26.000 -0.000,25.104 -0.000,24.000 L-0.000,2.000 C-0.000,0.895 0.895,-0.000 2.000,-0.000 L30.000,-0.000 C31.104,-0.000 32.000,0.895 32.000,2.000 L32.000,24.000 C32.000,25.104 31.104,26.000 30.000,26.000 ZM29.000,3.000 L3.000,3.000 L3.000,14.197 C3.338,14.346 3.661,14.496 3.973,14.644 C5.507,15.372 6.832,16.000 9.661,16.000 C12.491,16.000 13.817,15.372 15.353,14.644 C16.981,13.873 18.826,13.000 22.331,13.000 C25.619,13.000 27.442,13.768 29.000,14.501 L29.000,3.000 ZM29.000,17.805 C28.660,17.655 28.336,17.504 28.023,17.355 C26.487,16.628 25.161,16.000 22.331,16.000 C19.500,16.000 18.174,16.628 16.638,17.355 C15.010,18.126 13.165,19.000 9.661,19.000 C6.377,19.000 4.556,18.232 3.000,17.502 L3.000,23.000 L29.000,23.000 L29.000,17.805 ZM9.000,11.000 C7.895,11.000 7.000,10.104 7.000,9.000 C7.000,7.895 7.895,7.000 9.000,7.000 C10.104,7.000 11.000,7.895 11.000,9.000 C11.000,10.104 10.104,11.000 9.000,11.000 Z" class="cls-1"/>
</svg>
