<svg xmlns="http://www.w3.org/2000/svg" xmlns:xlink="http://www.w3.org/1999/xlink" preserveAspectRatio="xMidYMid" width="18" height="15.75" viewBox="0 0 32 28">
  <defs>
    <style>
      .cls-1 {
        fill: #000;
        fill-rule: evenodd;
      }
    </style>
  </defs>
  <path d="M15.000,3.000 L12.000,-0.000 L2.000,-0.000 C0.895,-0.000 -0.000,0.895 -0.000,2.000 L-0.000,26.000 C-0.000,27.104 0.895,28.000 2.000,28.000 L30.000,28.000 C31.104,28.000 32.000,27.104 32.000,26.000 L32.000,5.000 C32.000,3.895 31.104,3.000 30.000,3.000 L15.000,3.000 ZM10.757,3.000 L13.757,6.000 L29.000,6.000 L29.000,8.000 L3.000,8.000 L3.000,3.000 L10.757,3.000 ZM3.000,25.000 L3.000,11.000 L29.000,11.000 L29.000,25.000 L3.000,25.000 Z" class="cls-1"/>
</svg>
