<svg xmlns="http://www.w3.org/2000/svg" xmlns:xlink="http://www.w3.org/1999/xlink" preserveAspectRatio="xMidYMid" width="16" height="16" viewBox="0 0 16 16">
  <defs>
    <style>
      .cls-1 {
        fill: #202731;
        fill-rule: evenodd;
      }
    </style>
  </defs>
  <path d="M8.000,16.000 C3.582,16.000 -0.000,12.418 -0.000,8.000 C-0.000,3.582 3.582,0.000 8.000,0.000 C12.418,0.000 16.000,3.582 16.000,8.000 C16.000,12.418 12.418,16.000 8.000,16.000 ZM8.000,1.500 C4.410,1.500 1.500,4.410 1.500,8.000 C1.500,11.590 4.410,14.500 8.000,14.500 C11.590,14.500 14.500,11.590 14.500,8.000 C14.500,4.410 11.590,1.500 8.000,1.500 ZM11.250,8.750 L9.750,8.750 L8.750,8.750 L8.000,8.750 L8.000,8.750 C7.586,8.750 7.250,8.414 7.250,8.000 L7.250,3.500 C7.250,3.086 7.586,2.750 8.000,2.750 C8.414,2.750 8.750,3.086 8.750,3.500 L8.750,7.250 L9.750,7.250 L11.250,7.250 C11.664,7.250 12.000,7.586 12.000,8.000 C12.000,8.414 11.664,8.750 11.250,8.750 Z" class="cls-1"/>
</svg>
