<svg xmlns="http://www.w3.org/2000/svg" xmlns:xlink="http://www.w3.org/1999/xlink" preserveAspectRatio="xMidYMid" width="23" height="16" viewBox="0 0 23 16">
  <defs>
    <style>
      .cls-1 {
        fill: #202731;
        fill-rule: evenodd;
      }
    </style>
  </defs>
  <path d="M9.000,16.000 L9.000,4.581 L11.627,4.581 L11.626,4.568 C11.626,2.045 13.585,-0.000 16.002,-0.000 C18.418,-0.000 20.377,2.045 20.377,4.568 L20.377,4.581 L23.000,4.581 L23.000,16.000 L9.000,16.000 ZM16.011,1.827 C14.561,1.827 13.386,3.054 13.386,4.567 L13.386,4.581 L18.636,4.581 L18.636,4.567 C18.636,3.054 17.460,1.827 16.011,1.827 ZM21.253,6.408 L10.753,6.408 L10.753,14.173 L21.253,14.173 L21.253,6.408 ZM-0.000,14.000 L6.000,14.000 L6.000,16.000 L0.000,16.000 L-0.000,14.000 ZM1.000,10.000 L6.000,10.000 L6.000,12.000 L1.000,12.000 L1.000,10.000 ZM2.000,6.000 L6.000,6.000 L6.000,8.000 L2.000,8.000 L2.000,6.000 Z" class="cls-1"/>
</svg>
