<svg xmlns="http://www.w3.org/2000/svg" xmlns:xlink="http://www.w3.org/1999/xlink" preserveAspectRatio="xMidYMid" width="31" height="31" viewBox="0 0 31 31">
  <defs>
    <style>
      .cls-1 {
        fill: #000;
        fill-rule: evenodd;
      }
    </style>
  </defs>
  <path d="M15.500,-0.002 C6.953,-0.002 -0.000,6.952 -0.000,15.499 C-0.000,24.045 6.953,30.998 15.500,30.998 C24.047,30.998 31.000,24.045 31.000,15.499 C31.000,6.952 24.047,-0.002 15.500,-0.002 ZM26.157,8.998 L23.235,8.998 C22.827,7.349 22.271,5.859 21.588,4.591 C23.465,5.643 25.036,7.167 26.157,8.998 ZM28.000,15.499 C28.000,16.714 27.817,17.886 27.492,18.998 L23.784,18.998 C23.921,17.875 24.000,16.707 24.000,15.499 C24.000,14.289 23.921,13.121 23.784,11.999 L27.492,11.999 C27.817,13.110 28.000,14.283 28.000,15.499 ZM3.000,15.499 C3.000,14.283 3.183,13.110 3.508,11.999 L7.216,11.999 C7.079,13.121 7.000,14.289 7.000,15.499 C7.000,16.707 7.079,17.875 7.216,18.998 L3.508,18.998 C3.183,17.886 3.000,16.714 3.000,15.499 ZM10.000,15.499 C10.000,14.262 10.088,13.095 10.236,11.999 L14.000,11.999 L14.000,18.998 L10.236,18.998 C10.088,17.902 10.000,16.735 10.000,15.499 ZM17.000,3.542 C18.237,4.425 19.399,6.352 20.149,8.998 L17.000,8.998 L17.000,3.542 ZM14.000,3.542 L14.000,8.998 L10.851,8.998 C11.601,6.352 12.763,4.425 14.000,3.542 ZM14.000,21.998 L14.000,27.455 C12.763,26.572 11.601,24.645 10.851,21.998 L14.000,21.998 ZM17.000,27.455 L17.000,21.998 L20.149,21.998 C19.399,24.645 18.237,26.572 17.000,27.455 ZM17.000,18.998 L17.000,11.999 L20.764,11.999 C20.912,13.095 21.000,14.262 21.000,15.499 C21.000,16.735 20.912,17.902 20.764,18.998 L17.000,18.998 ZM9.412,4.591 C8.729,5.859 8.173,7.349 7.765,8.998 L4.843,8.998 C5.964,7.167 7.535,5.643 9.412,4.591 ZM4.843,21.998 L7.765,21.998 C8.173,23.648 8.729,25.138 9.412,26.406 C7.535,25.354 5.964,23.830 4.843,21.998 ZM21.588,26.406 C22.271,25.138 22.827,23.648 23.235,21.998 L26.157,21.998 C25.036,23.830 23.465,25.354 21.588,26.406 Z" class="cls-1"/>
</svg>
