<?xml version="1.0" encoding="utf-8"?>
<!-- Generator: Adobe Illustrator 17.0.0, SVG Export Plug-In . SVG Version: 6.00 Build 0)  -->
<!DOCTYPE svg PUBLIC "-//W3C//DTD SVG 1.1//EN" "http://www.w3.org/Graphics/SVG/1.1/DTD/svg11.dtd">
<svg version="1.1" id="Layer_1" xmlns="http://www.w3.org/2000/svg" xmlns:xlink="http://www.w3.org/1999/xlink" x="0px" y="0px"
	 width="3.84px" height="3.121px" viewBox="291.576 -48.093 3.84 3.121" enable-background="new 291.576 -48.093 3.84 3.121"
	 xml:space="preserve">
<path fill="#FF0000" d="M294.336-48.093c-0.288,0-0.52,0.096-0.724,0.286l0,0l0,0l-0.116,0.136l-0.116-0.127l0,0l0,0l0,0
	c-0.204-0.189-0.435-0.294-0.724-0.294s-0.56,0.104-0.764,0.294c-0.204,0.189-0.316,0.441-0.316,0.709
	c0,0.268,0.112,0.52,0.316,0.709l1.434,1.342c0.045,0.042,0.106,0.066,0.17,0.066c0.064,0,0.125-0.024,0.17-0.066l1.434-1.342
	c0.204-0.189,0.316-0.441,0.316-0.709s-0.112-0.52-0.316-0.709C294.896-47.989,294.625-48.093,294.336-48.093L294.336-48.093z"/>
</svg>
