<?xml version="1.0" encoding="utf-8"?>
<!-- Generator: Adobe Illustrator 17.0.0, SVG Export Plug-In . SVG Version: 6.00 Build 0)  -->
<!DOCTYPE svg PUBLIC "-//W3C//DTD SVG 1.1//EN" "http://www.w3.org/Graphics/SVG/1.1/DTD/svg11.dtd">
<svg version="1.1" id="Layer_1" xmlns="http://www.w3.org/2000/svg" xmlns:xlink="http://www.w3.org/1999/xlink" x="0px" y="0px"
	 width="20.78px" height="20.78px" viewBox="-16.22 -16.22 20.78 20.78" enable-background="new -16.22 -16.22 20.78 20.78"
	 xml:space="preserve">
<path fill-rule="evenodd" clip-rule="evenodd" fill="#979797" d="M-5.753,4.56c-5.565,0-10.093-4.527-10.093-10.093
	s4.527-10.093,10.093-10.093S4.34-11.098,4.34-5.533S-0.187,4.56-5.753,4.56z M-5.753-0.486c-0.697,0-1.262-0.565-1.262-1.262
	v-3.785c0-0.697,0.565-1.262,1.262-1.262s1.262,0.565,1.262,1.262v3.785C-4.491-1.051-5.056-0.486-5.753-0.486z M-5.753-8.056
	c-0.697,0-1.262-0.565-1.262-1.262c0-0.697,0.565-1.262,1.262-1.262s1.262,0.565,1.262,1.262C-4.491-8.62-5.056-8.056-5.753-8.056z"
	/>
</svg>
