<?xml version="1.0" encoding="utf-8"?>
<!-- Generator: Adobe Illustrator 17.0.0, SVG Export Plug-In . SVG Version: 6.00 Build 0)  -->
<!DOCTYPE svg PUBLIC "-//W3C//DTD SVG 1.1//EN" "http://www.w3.org/Graphics/SVG/1.1/DTD/svg11.dtd">
<svg version="1.1" id="Layer_1" xmlns="http://www.w3.org/2000/svg" xmlns:xlink="http://www.w3.org/1999/xlink" x="0px" y="0px"
	 width="31px" height="31px" viewBox="0 0 31 31" enable-background="new 0 0 31 31" xml:space="preserve">
<path d="M15.5-0.002C6.953-0.002,0,6.952,0,15.498s6.953,15.5,15.5,15.5S31,24.045,31,15.498S24.047-0.002,15.5-0.002z
	 M26.157,8.998h-2.922c-0.408-1.649-0.964-3.14-1.647-4.407C23.465,5.643,25.036,7.167,26.157,8.998z M28,15.498
	c0,1.216-0.183,2.388-0.508,3.5h-3.708c0.137-1.123,0.216-2.291,0.216-3.5c0-1.21-0.079-2.377-0.216-3.5h3.708
	C27.817,13.11,28,14.283,28,15.498z M3,15.498c0-1.216,0.183-2.388,0.508-3.5h3.708C7.079,13.121,7,14.289,7,15.498
	c0,1.209,0.079,2.377,0.216,3.5H3.508C3.183,17.886,3,16.714,3,15.498z M10,15.498c0-1.236,0.088-2.403,0.236-3.5H14v7h-3.764
	C10.088,17.902,10,16.735,10,15.498z M17,3.542c1.237,0.883,2.399,2.81,3.149,5.456H17V3.542z M14,3.542v5.456h-3.149
	C11.601,6.352,12.763,4.425,14,3.542z M14,21.998v5.456c-1.237-0.883-2.399-2.81-3.149-5.456H14z M17,27.455v-5.456h3.149
	C19.399,24.645,18.237,26.572,17,27.455z M17,18.999v-7h3.764c0.148,1.097,0.236,2.264,0.236,3.5c0,1.236-0.088,2.403-0.236,3.5H17z
	 M9.412,4.591C8.729,5.859,8.173,7.349,7.765,8.998H4.843C5.964,7.167,7.535,5.643,9.412,4.591z M4.843,21.998h2.922
	c0.408,1.649,0.964,3.14,1.647,4.407C7.535,25.354,5.964,23.83,4.843,21.998z M21.588,26.406c0.683-1.268,1.238-2.758,1.647-4.407
	h2.922C25.036,23.83,23.465,25.354,21.588,26.406z"/>
</svg>
