<?xml version="1.0" encoding="utf-8"?>
<!-- Generator: Adobe Illustrator 17.0.0, SVG Export Plug-In . SVG Version: 6.00 Build 0)  -->
<!DOCTYPE svg PUBLIC "-//W3C//DTD SVG 1.1//EN" "http://www.w3.org/Graphics/SVG/1.1/DTD/svg11.dtd">
<svg version="1.1" id="Layer_1" xmlns="http://www.w3.org/2000/svg" xmlns:xlink="http://www.w3.org/1999/xlink" x="0px" y="0px"
	 width="251px" height="76px" viewBox="0 0 251 76" enable-background="new 0 0 251 76" xml:space="preserve">
<path fill-rule="evenodd" clip-rule="evenodd" d="M226.751,58.598c-10.017,0-16.877-6.666-16.877-16.363
	c0-9.757,6.86-16.363,16.877-16.363c9.956,0,16.817,6.606,16.817,16.363C243.568,51.931,236.707,58.598,226.751,58.598z
	 M226.751,31.872c-5.828,0-9.896,4.242-9.896,10.424c0,6.242,4.067,10.484,9.896,10.484c5.768,0,9.835-4.242,9.835-10.484
	C236.586,36.114,232.518,31.872,226.751,31.872z M193.641,58.598c-4.735,0-9.774-1.576-12.992-4.485l2.489-4.969
	c2.793,2.485,7.285,4,10.806,4c2.975,0,5.282-1.03,5.282-3.454c0-6.606-16.999-2.909-16.938-14.545
	c0-6.545,5.707-9.333,11.899-9.333c4.068,0,8.378,1.212,11.292,3.272l-2.55,5.151c-2.853-1.757-6.435-2.848-9.289-2.848
	c-2.732,0-4.735,0.909-4.735,3.212c0,5.939,17.181,2.727,17.12,14.424C206.026,55.628,200.137,58.598,193.641,58.598z M166.6,54.693
	c-2.393,2.425-3.853,3.845-9.135,3.905c-8.903,0-14.239-4.727-14.239-12.424v-20.06h6.982v18.12c0,4.848,2.853,7.818,7.528,7.818
	c5.585-0.121,8.864-4.424,8.864-10.06V26.114h6.982v32.241H166.6V54.693z M119.09,58.54c-9.989,0-16.83-6.649-16.83-16.32v-28.8
	h6.96v15.178c2.693-1.734,6.051-2.698,9.87-2.698c9.929,0,16.77,6.588,16.77,16.32C135.86,51.891,129.019,58.54,119.09,58.54z
	 M119.09,31.884c-5.812,0-9.868,4.231-9.868,10.396c0,6.226,4.056,10.457,9.868,10.457c5.751,0,9.808-4.231,9.808-10.457
	C128.898,36.115,124.842,31.884,119.09,31.884z M83.846,13.387h6.982v44.968h-6.982V13.387z M8.42,5.98h67.19v62.88H8.42V5.98z
	 M27.218,58.355h31.084v-6.424h-23.92V40.235h20.763v-6.424H34.382V22.357h23.191v-6.424H27.218V58.355z"/>
</svg>
