<?xml version="1.0" encoding="utf-8"?>
<!-- Generator: Adobe Illustrator 17.0.0, SVG Export Plug-In . SVG Version: 6.00 Build 0)  -->
<!DOCTYPE svg PUBLIC "-//W3C//DTD SVG 1.1//EN" "http://www.w3.org/Graphics/SVG/1.1/DTD/svg11.dtd">
<svg version="1.1" id="Layer_1" xmlns="http://www.w3.org/2000/svg" xmlns:xlink="http://www.w3.org/1999/xlink" x="0px" y="0px"
	 width="40.667px" height="48px" viewBox="17.372 8.851 40.667 48" enable-background="new 17.372 8.851 40.667 48"
	 xml:space="preserve">
<path d="M55.526,29.498c-0.096,0.646-0.253,1.266-0.415,1.887c-0.076,0.297-0.145,0.593-0.233,0.891
	c-0.107,0.337-0.213,0.671-0.339,0.999C50.556,44.98,37.872,56.851,37.872,56.851S25.618,45.389,21.413,33.886
	c-0.029-0.07-0.045-0.146-0.073-0.216c-0.274-0.769-0.515-1.536-0.71-2.301c-0.132-0.511-0.253-1.02-0.34-1.548
	c-0.177-1.002-0.297-1.996-0.297-2.97c0-9.941,8.005-18,17.88-18s17.88,8.059,17.88,18C55.752,27.72,55.668,28.605,55.526,29.498z
	 M37.872,17.851c-4.937,0-8.94,4.029-8.94,9s4.003,9,8.94,9s8.94-4.029,8.94-9S42.81,17.851,37.872,17.851z"/>
</svg>
