<svg xmlns="http://www.w3.org/2000/svg" xmlns:xlink="http://www.w3.org/1999/xlink" preserveAspectRatio="xMidYMid" width="32" height="32" viewBox="0 0 32 32">
  <defs>
    <style>
      .cls-1 {
        fill: #000;
        fill-rule: evenodd;
      }
    </style>
  </defs>
  <path d="M30.500,32.000 L1.500,32.000 C0.671,32.000 -0.000,31.328 -0.000,30.500 C-0.000,29.672 0.671,29.000 1.500,29.000 L30.500,29.000 C31.329,29.000 32.000,29.672 32.000,30.500 C32.000,31.328 31.329,32.000 30.500,32.000 ZM29.000,26.000 L25.000,26.000 C23.895,26.000 23.000,25.104 23.000,24.000 L23.000,2.000 C23.000,0.895 23.895,-0.000 25.000,-0.000 L29.000,-0.000 C30.104,-0.000 31.000,0.895 31.000,2.000 L31.000,24.000 C31.000,25.104 30.104,26.000 29.000,26.000 ZM28.000,3.000 L26.000,3.000 L26.000,23.000 L28.000,23.000 L28.000,3.000 ZM18.000,26.000 L14.000,26.000 C12.895,26.000 12.000,25.104 12.000,24.000 L12.000,10.000 C12.000,8.895 12.895,8.000 14.000,8.000 L18.000,8.000 C19.104,8.000 20.000,8.895 20.000,10.000 L20.000,24.000 C20.000,25.104 19.104,26.000 18.000,26.000 ZM17.000,11.000 L15.000,11.000 L15.000,23.000 L17.000,23.000 L17.000,11.000 ZM7.000,26.000 L3.000,26.000 C1.895,26.000 1.000,25.104 1.000,24.000 L1.000,18.000 C1.000,16.895 1.895,16.000 3.000,16.000 L7.000,16.000 C8.104,16.000 9.000,16.895 9.000,18.000 L9.000,24.000 C9.000,25.104 8.104,26.000 7.000,26.000 ZM6.000,19.000 L4.000,19.000 L4.000,23.000 L6.000,23.000 L6.000,19.000 Z" class="cls-1"/>
</svg>
