<?xml version="1.0" encoding="utf-8"?>
<!-- Generator: Adobe Illustrator 17.0.0, SVG Export Plug-In . SVG Version: 6.00 Build 0)  -->
<!DOCTYPE svg PUBLIC "-//W3C//DTD SVG 1.1//EN" "http://www.w3.org/Graphics/SVG/1.1/DTD/svg11.dtd">
<svg version="1.1" id="Layer_1" xmlns="http://www.w3.org/2000/svg" xmlns:xlink="http://www.w3.org/1999/xlink" x="0px" y="0px"
	 width="16.127px" height="23.912px" viewBox="0 9.088 16.127 23.912" enable-background="new 0 9.088 16.127 23.912"
	 xml:space="preserve">
<path fill="#FFFFFF" d="M9.607,24.881v3.78H6.709v-3.754c-0.001,0-0.001-0.001-0.002-0.001v-3.004
	c0.464,0.14,0.946,0.237,1.454,0.237c2.803,0,5.074-2.274,5.074-5.08c0-2.806-2.272-5.081-5.074-5.081s-5.074,2.274-5.074,5.08
	H0.015c0-4.402,3.607-7.97,8.056-7.97s8.056,3.569,8.056,7.97C16.127,20.941,13.321,24.171,9.607,24.881z M9.594,32.999H6.718
	l-0.001-2.897h2.877V32.999z"/>
</svg>
