<svg xmlns="http://www.w3.org/2000/svg" xmlns:xlink="http://www.w3.org/1999/xlink" preserveAspectRatio="xMidYMid" width="22.25" height="33" viewBox="0 0 22.25 33">
  <defs>
    <style>
      .cls-1 {
        fill: #000;
        fill-rule: evenodd;
      }
    </style>
  </defs>
  <path d="M13.253,21.796 L13.253,27.013 L9.253,27.013 L9.253,21.832 C9.252,21.832 9.251,21.831 9.250,21.831 L9.250,17.685 C9.890,17.878 10.555,18.012 11.257,18.012 C15.125,18.012 18.260,14.873 18.260,11.001 C18.260,7.128 15.125,3.989 11.257,3.989 C7.389,3.989 4.254,7.128 4.254,11.000 L0.015,11.000 C0.015,4.925 4.993,0.000 11.133,0.000 C17.273,0.000 22.251,4.925 22.251,11.000 C22.251,16.358 18.378,20.816 13.253,21.796 ZM13.235,32.999 L9.266,32.999 L9.265,29.001 L13.235,29.001 L13.235,32.999 Z" class="cls-1"/>
</svg>
