<svg xmlns="http://www.w3.org/2000/svg" xmlns:xlink="http://www.w3.org/1999/xlink" preserveAspectRatio="xMidYMid" width="32.063" height="18" viewBox="0 0 57 32">
  <defs>
    <style>
      .cls-1 {
        fill: #000;
        fill-rule: evenodd;
      }
    </style>
  </defs>
  <path d="M57.000,29.000 L57.000,30.000 C57.000,31.104 56.104,32.000 55.000,32.000 L29.000,32.000 C28.826,32.000 28.661,31.971 28.500,31.929 C28.339,31.971 28.174,32.000 28.000,32.000 L2.000,32.000 C0.895,32.000 -0.000,31.104 -0.000,30.000 L-0.000,29.000 C-0.000,24.079 3.160,19.806 7.811,17.598 C6.680,15.759 6.000,13.479 6.000,11.000 C6.000,4.925 10.029,-0.000 15.000,-0.000 C19.971,-0.000 24.000,4.925 24.000,11.000 C24.000,13.479 23.320,15.759 22.188,17.598 C24.934,18.902 27.137,20.936 28.500,23.387 C29.863,20.936 32.066,18.901 34.811,17.598 C33.680,15.759 33.000,13.479 33.000,11.000 C33.000,4.925 37.029,-0.000 42.000,-0.000 C46.971,-0.000 51.000,4.925 51.000,11.000 C51.000,13.479 50.320,15.759 49.188,17.598 C53.840,19.806 57.000,24.079 57.000,29.000 ZM15.000,3.000 C11.748,3.000 9.000,6.663 9.000,11.000 C9.000,15.336 11.748,19.000 15.000,19.000 C18.252,19.000 21.000,15.336 21.000,11.000 C21.000,6.663 18.252,3.000 15.000,3.000 ZM20.180,19.987 C18.714,21.251 16.930,22.000 15.000,22.000 C13.070,22.000 11.286,21.251 9.820,19.987 C5.790,21.601 3.000,25.031 3.000,29.000 L27.000,29.000 C27.000,29.000 27.000,29.000 27.000,29.000 C27.000,25.031 24.210,21.601 20.180,19.987 ZM42.000,3.000 C38.748,3.000 36.000,6.663 36.000,11.000 C36.000,15.336 38.748,19.000 42.000,19.000 C45.252,19.000 48.000,15.336 48.000,11.000 C48.000,6.663 45.252,3.000 42.000,3.000 ZM47.180,19.987 C45.714,21.251 43.930,22.000 42.000,22.000 C40.070,22.000 38.286,21.251 36.820,19.987 C32.790,21.601 30.000,25.031 30.000,29.000 L54.000,29.000 C54.000,25.031 51.210,21.601 47.180,19.987 Z" class="cls-1"/>
</svg>
