<?xml version="1.0" encoding="utf-8"?>
<!-- Generator: Adobe Illustrator 17.0.0, SVG Export Plug-In . SVG Version: 6.00 Build 0)  -->
<!DOCTYPE svg PUBLIC "-//W3C//DTD SVG 1.1//EN" "http://www.w3.org/Graphics/SVG/1.1/DTD/svg11.dtd">
<svg version="1.1" id="Layer_1" xmlns="http://www.w3.org/2000/svg" xmlns:xlink="http://www.w3.org/1999/xlink" x="0px" y="0px"
	 width="16.875px" height="18px" viewBox="0 0 16.875 18" enable-background="new 0 0 16.875 18" xml:space="preserve">
<path fill="#FFFFFF" d="M12.481,9.899C13.118,8.864,13.5,7.582,13.5,6.188C13.5,2.77,11.234,0,8.438,0S3.375,2.77,3.375,6.188
	c0,1.394,0.382,2.677,1.019,3.711C1.778,11.141,0,13.544,0,16.312v0.562C0,17.496,0.503,18,1.125,18H15.75
	c0.621,0,1.125-0.504,1.125-1.125v-0.562C16.875,13.544,15.097,11.141,12.481,9.899z M8.438,1.688c1.829,0,3.375,2.06,3.375,4.5
	c0,2.439-1.546,4.5-3.375,4.5s-3.375-2.061-3.375-4.5C5.062,3.748,6.608,1.688,8.438,1.688z M1.688,16.312
	c0-2.233,1.569-4.162,3.836-5.07c0.825,0.711,1.828,1.132,2.914,1.132s2.089-0.421,2.914-1.132c2.267,0.908,3.836,2.837,3.836,5.07
	H1.688z"/>
</svg>
