<svg xmlns="http://www.w3.org/2000/svg" xmlns:xlink="http://www.w3.org/1999/xlink" preserveAspectRatio="xMidYMid" width="16.875" height="18" viewBox="0 0 30 32">
  <defs>
    <style>
      .cls-1 {
        fill: #000;
        fill-rule: evenodd;
      }
    </style>
  </defs>
  <path d="M22.188,17.598 C23.320,15.759 24.000,13.479 24.000,11.000 C24.000,4.925 19.971,-0.000 15.000,-0.000 C10.029,-0.000 6.000,4.925 6.000,11.000 C6.000,13.479 6.680,15.759 7.811,17.598 C3.160,19.806 -0.000,24.079 -0.000,29.000 L-0.000,30.000 C-0.000,31.104 0.895,32.000 2.000,32.000 L28.000,32.000 C29.104,32.000 30.000,31.104 30.000,30.000 L30.000,29.000 C30.000,24.079 26.840,19.806 22.188,17.598 ZM15.000,3.000 C18.252,3.000 21.000,6.663 21.000,11.000 C21.000,15.336 18.252,19.000 15.000,19.000 C11.748,19.000 9.000,15.336 9.000,11.000 C9.000,6.663 11.748,3.000 15.000,3.000 ZM3.000,29.000 C3.000,25.031 5.790,21.601 9.820,19.987 C11.286,21.251 13.070,22.000 15.000,22.000 C16.930,22.000 18.714,21.251 20.180,19.987 C24.210,21.601 27.000,25.031 27.000,29.000 L3.000,29.000 Z" class="cls-1"/>
</svg>
